<svg width="24" height="24" viewBox="0 0 24 24" fill="none" xmlns="http://www.w3.org/2000/svg">
<g id="behance_svgrepo.com">
<path id="Vector" d="M11.0156 5.98135C11.4656 6.60947 11.6906 7.36885 11.6906 8.2501C11.6906 9.1501 11.4656 9.88135 11.0063 10.4345C10.7531 10.7438 10.3688 11.0251 9.87188 11.2782C10.6313 11.5595 11.2031 11.9907 11.5875 12.5907C11.9719 13.1907 12.1688 13.9126 12.1688 14.7657C12.1688 15.647 11.9531 16.4345 11.5031 17.1282C11.2219 17.5876 10.875 17.9813 10.4531 18.2907C9.98438 18.6563 9.42188 18.9001 8.775 19.0407C8.12813 19.172 7.43438 19.2376 6.675 19.2376H0V4.39697H7.17188C8.97188 4.4251 10.2563 4.9501 11.0156 5.98135ZM2.95313 6.9751V10.247H6.5625C7.20938 10.247 7.725 10.1251 8.12813 9.88135C8.53125 9.6376 8.72813 9.19697 8.72813 8.57822C8.72813 7.88447 8.46563 7.43447 7.93125 7.20947C7.47188 7.05947 6.89063 6.9751 6.17813 6.9751H2.95313ZM2.95313 12.6938V16.6501H6.5625C7.20938 16.6501 7.70625 16.5657 8.0625 16.3876C8.71875 16.0595 9.0375 15.4501 9.0375 14.5407C9.0375 13.772 8.72813 13.2376 8.09063 12.947C7.73438 12.7876 7.24688 12.7032 6.60938 12.6938H2.95313ZM21.1313 8.48447C21.9 8.82197 22.5281 9.36572 23.025 10.1063C23.475 10.7532 23.7656 11.5126 23.8969 12.3751C23.9719 12.8813 24.0094 13.6032 23.9906 14.5501H16.0031C16.05 15.647 16.425 16.4251 17.1469 16.8657C17.5875 17.1376 18.1125 17.2782 18.7313 17.2782C19.3781 17.2782 19.9125 17.1095 20.325 16.772C20.55 16.5938 20.7469 16.3407 20.9156 16.0126H23.8406C23.7656 16.6595 23.4094 17.3251 22.7813 18.0001C21.7969 19.0688 20.4281 19.6032 18.6563 19.6032C17.1938 19.6032 15.9094 19.1532 14.7938 18.2532C13.6781 17.3532 13.1156 15.8907 13.1156 13.8657C13.1156 11.9626 13.6219 10.5095 14.625 9.49697C15.6375 8.48447 16.9406 7.97822 18.5438 7.97822C19.5094 7.96885 20.3719 8.1376 21.1313 8.48447ZM16.8469 10.9595C16.4438 11.3813 16.1906 11.9438 16.0781 12.6563H21.0188C20.9625 11.897 20.7094 11.3157 20.2594 10.922C19.8 10.5282 19.2281 10.3313 18.5531 10.3313C17.8219 10.3313 17.25 10.547 16.8469 10.9595ZM21.6938 5.09072H15.3375V6.9376H21.6938V5.09072Z" fill="#333333"/>
</g>
</svg>
