<svg width="25" height="24" viewBox="0 0 25 24" fill="none" xmlns="http://www.w3.org/2000/svg">
<g id="bell-02">
<path id="Icon" d="M14.5 21H10.5M18.5 8C18.5 6.4087 17.8679 4.88258 16.7427 3.75736C15.6174 2.63214 14.0913 2 12.5 2C10.9087 2 9.3826 2.63214 8.25738 3.75736C7.13216 4.88258 6.50002 6.4087 6.50002 8C6.50002 11.0902 5.72049 13.206 4.84968 14.6054C4.11515 15.7859 3.74788 16.3761 3.76134 16.5408C3.77626 16.7231 3.81488 16.7926 3.96179 16.9016C4.09448 17 4.69261 17 5.88887 17H19.1112C20.3074 17 20.9056 17 21.0382 16.9016C21.1852 16.7926 21.2238 16.7231 21.2387 16.5408C21.2522 16.3761 20.8849 15.7859 20.1504 14.6054C19.2795 13.206 18.5 11.0902 18.5 8Z" stroke="#1F3155" stroke-width="1.5" stroke-linecap="round" stroke-linejoin="round"/>
</g>
</svg>
