<svg width="25" height="24" viewBox="0 0 25 24" fill="none" xmlns="http://www.w3.org/2000/svg">
<g id="calendar-user_svgrepo.com">
<path id="Vector" d="M15.5 2.5V6.5M9.5 2.5V6.5M9.5 11.5H4.01733M4.01733 11.5C4.00563 11.8208 4 12.154 4 12.5C4 17.4094 5.14094 19.7517 8.5 20.6041M4.01733 11.5C4.2256 5.79277 6.34596 4 12.5 4C17.8679 4 20.1668 5.36399 20.8048 9.5M18.5 13C18.5 14.1045 17.6046 15 16.5 15C15.3954 15 14.5 14.1045 14.5 13C14.5 11.8954 15.3954 11 16.5 11C17.6046 11 18.5 11.8954 18.5 13ZM13.75 21H19.25C19.9404 21 20.5 20.4404 20.5 19.75C20.5 17.7096 17.5 17.75 16.5 17.75C15.5 17.75 12.5 17.7096 12.5 19.75C12.5 20.4404 13.0596 21 13.75 21Z" stroke="#1F3155" stroke-width="1.5" stroke-linecap="round" stroke-linejoin="round"/>
</g>
</svg>
