<svg width="60" height="60" viewBox="0 0 60 60" fill="none" xmlns="http://www.w3.org/2000/svg">
<g id="call-192_svgrepo.com" clip-path="url(#clip0_76_3349)">
<g id="Page-1">
<g id="Dribbble-Light-Preview">
<g id="icons">
<path id="call-[#192]" fill-rule="evenodd" clip-rule="evenodd" d="M58.9212 51.9845C57.0692 57.6125 49.8132 60.4193 44.6292 59.9513C37.5492 59.3113 29.8452 55.556 23.9972 51.42C15.4012 45.34 7.34918 35.9352 2.65718 25.9552C-0.658818 18.9032 -1.40281 10.2328 3.52919 3.8048C5.35319 1.4288 7.32519 0.159829 10.2892 0.0118293C14.4012 -0.188171 14.9772 2.16424 16.3892 5.82824C17.4412 8.56824 18.8452 11.3632 19.6292 14.2032C21.0972 19.5032 15.9652 19.7248 15.3172 24.0568C14.9132 26.7888 18.2252 30.4525 19.7212 32.4005C22.6532 36.2165 26.1772 39.5078 30.1532 42.0118C32.4292 43.4478 36.1052 46.0355 38.7132 44.6075C42.7292 42.4075 42.3492 35.6358 47.9652 37.9278C50.8732 39.1119 53.6892 40.8205 56.4652 42.3165C60.7572 44.6245 60.5572 47.0165 58.9212 51.9845C60.1452 48.2725 57.6972 55.6965 58.9212 51.9845Z" fill="#1F3155"/>
</g>
</g>
</g>
</g>
<defs>
<clipPath id="clip0_76_3349">
<rect width="60" height="60" fill="white"/>
</clipPath>
</defs>
</svg>
