<svg width="73" height="72" viewBox="0 0 73 72" fill="none" xmlns="http://www.w3.org/2000/svg">
<circle cx="36.3898" cy="35.8537" r="35.3537" stroke="#CCCCCC"/>
<path d="M24.4385 30.7167C24.4385 28.9334 25.8841 27.4877 27.6674 27.4877C28.594 27.4877 29.4166 26.8948 29.7096 26.0158L29.8165 25.695C29.8669 25.5438 29.8922 25.4681 29.9191 25.401C30.2636 24.5443 31.0707 23.9625 31.9924 23.9067C32.0646 23.9023 32.1443 23.9023 32.3037 23.9023H40.4757C40.6351 23.9023 40.7148 23.9023 40.787 23.9067C41.7087 23.9625 42.5158 24.5443 42.8603 25.401C42.8872 25.4681 42.9124 25.5438 42.9629 25.695L43.0698 26.0158C43.3628 26.8948 44.1854 27.4877 45.112 27.4877C46.8953 27.4877 48.3409 28.9334 48.3409 30.7167V40.8731C48.3409 42.8811 48.3409 43.8851 47.9501 44.652C47.6064 45.3266 47.0579 45.8751 46.3833 46.2189C45.6163 46.6097 44.6123 46.6097 42.6043 46.6097H30.1751C28.1671 46.6097 27.1631 46.6097 26.3961 46.2189C25.7215 45.8751 25.173 45.3266 24.8293 44.652C24.4385 43.8851 24.4385 42.8811 24.4385 40.8731V30.7167Z" stroke="#333333" stroke-width="2" stroke-linecap="round" stroke-linejoin="round"/>
<path d="M36.3897 41.2316C39.3599 41.2316 41.7677 38.8238 41.7677 35.8536C41.7677 32.8833 39.3599 30.4755 36.3897 30.4755C33.4195 30.4755 31.0116 32.8833 31.0116 35.8536C31.0116 38.8238 33.4195 41.2316 36.3897 41.2316Z" stroke="#333333" stroke-width="2" stroke-linecap="round" stroke-linejoin="round"/>
</svg>
