<svg width="20" height="20" viewBox="0 0 20 20" fill="none" xmlns="http://www.w3.org/2000/svg">
<g id="delete-filled_svgrepo.com">
<path id="Vector" d="M6.875 3.75027V1.87402C6.875 1.70826 6.94085 1.54929 7.05806 1.43208C7.17527 1.31487 7.33424 1.24902 7.5 1.24902H12.5C12.6658 1.24902 12.8247 1.31487 12.9419 1.43208C13.0592 1.54929 13.125 1.70826 13.125 1.87402V3.75027H18.125C18.2908 3.75027 18.4497 3.81612 18.5669 3.93333C18.6842 4.05054 18.75 4.20951 18.75 4.37527C18.75 4.54103 18.6842 4.7 18.5669 4.81721C18.4497 4.93442 18.2908 5.00027 18.125 5.00027H1.875C1.70924 5.00027 1.55027 4.93442 1.43306 4.81721C1.31585 4.7 1.25 4.54103 1.25 4.37527C1.25 4.20951 1.31585 4.05054 1.43306 3.93333C1.55027 3.81612 1.70924 3.75027 1.875 3.75027H6.875ZM8.125 3.75027H11.875V2.50027H8.125V3.75027ZM3.75 18.7503C3.58424 18.7503 3.42527 18.6844 3.30806 18.5672C3.19085 18.45 3.125 18.291 3.125 18.1253V5.00027H16.875V18.1253C16.875 18.291 16.8092 18.45 16.6919 18.5672C16.5747 18.6844 16.4158 18.7503 16.25 18.7503H3.75ZM8.125 15.0003C8.29076 15.0003 8.44973 14.9344 8.56694 14.8172C8.68415 14.7 8.75 14.541 8.75 14.3753V8.12527C8.75 7.95951 8.68415 7.80054 8.56694 7.68333C8.44973 7.56612 8.29076 7.50027 8.125 7.50027C7.95924 7.50027 7.80027 7.56612 7.68306 7.68333C7.56585 7.80054 7.5 7.95951 7.5 8.12527V14.3753C7.5 14.541 7.56585 14.7 7.68306 14.8172C7.80027 14.9344 7.95924 15.0003 8.125 15.0003ZM11.875 15.0003C12.0408 15.0003 12.1997 14.9344 12.3169 14.8172C12.4342 14.7 12.5 14.541 12.5 14.3753V8.12527C12.5 7.95951 12.4342 7.80054 12.3169 7.68333C12.1997 7.56612 12.0408 7.50027 11.875 7.50027C11.7092 7.50027 11.5503 7.56612 11.4331 7.68333C11.3158 7.80054 11.25 7.95951 11.25 8.12527V14.3753C11.25 14.541 11.3158 14.7 11.4331 14.8172C11.5503 14.9344 11.7092 15.0003 11.875 15.0003Z" fill="#0074E4"/>
</g>
</svg>
