<svg width="20" height="20" viewBox="0 0 20 20" fill="none" xmlns="http://www.w3.org/2000/svg">
<path d="M8.07963 11.04C8.01963 11.04 6.69963 11.04 6.09963 11.04C5.77963 11.04 5.67963 10.92 5.67963 10.62C5.67963 9.82002 5.67963 9.00002 5.67963 8.20002C5.67963 7.88002 5.79963 7.78002 6.09963 7.78002H8.07963C8.07963 7.72002 8.07963 6.56002 8.07963 6.02002C8.07963 5.22002 8.21963 4.46002 8.61963 3.76002C9.03963 3.04002 9.63963 2.56002 10.3996 2.28002C10.8996 2.10002 11.3996 2.02002 11.9396 2.02002H13.8996C14.1796 2.02002 14.2996 2.14002 14.2996 2.42002V4.70002C14.2996 4.98002 14.1796 5.10002 13.8996 5.10002C13.3596 5.10002 12.8196 5.10002 12.2796 5.12002C11.7396 5.12002 11.4596 5.38002 11.4596 5.94002C11.4396 6.54002 11.4596 7.12002 11.4596 7.74002H13.7796C14.0996 7.74002 14.2196 7.86002 14.2196 8.18002V10.6C14.2196 10.92 14.1196 11.02 13.7796 11.02C13.0596 11.02 11.5196 11.02 11.4596 11.02V17.54C11.4596 17.88 11.3596 18 10.9996 18C10.1596 18 9.33963 18 8.49963 18C8.19963 18 8.07963 17.88 8.07963 17.58C8.07963 15.48 8.07963 11.1 8.07963 11.04Z" fill="white"/>
</svg>
