<svg width="24" height="24" viewBox="0 0 24 24" fill="none" xmlns="http://www.w3.org/2000/svg">
<g id="facebook (2) 1">
<g id="_x30_1._Facebook">
<path id="Icon_11_" d="M9.69543 13.2481C9.62343 13.2481 8.03943 13.2481 7.31943 13.2481C6.93543 13.2481 6.81543 13.1041 6.81543 12.7441C6.81543 11.7841 6.81543 10.8001 6.81543 9.84007C6.81543 9.45607 6.95943 9.33607 7.31943 9.33607H9.69543C9.69543 9.26407 9.69543 7.87207 9.69543 7.22407C9.69543 6.26407 9.86343 5.35207 10.3434 4.51207C10.8474 3.64807 11.5674 3.07207 12.4794 2.73607C13.0794 2.52007 13.6794 2.42407 14.3274 2.42407H16.6794C17.0154 2.42407 17.1594 2.56807 17.1594 2.90407V5.64007C17.1594 5.97607 17.0154 6.12007 16.6794 6.12007C16.0314 6.12007 15.3834 6.12007 14.7354 6.14407C14.0874 6.14407 13.7514 6.45607 13.7514 7.12807C13.7274 7.84807 13.7514 8.54407 13.7514 9.28807H16.5354C16.9194 9.28807 17.0634 9.43207 17.0634 9.81607V12.7201C17.0634 13.1041 16.9434 13.2241 16.5354 13.2241C15.6714 13.2241 13.8234 13.2241 13.7514 13.2241V21.0481C13.7514 21.4561 13.6314 21.6001 13.1994 21.6001C12.1914 21.6001 11.2074 21.6001 10.1994 21.6001C9.83943 21.6001 9.69543 21.4561 9.69543 21.0961C9.69543 18.5761 9.69543 13.3201 9.69543 13.2481Z" fill="#333333"/>
</g>
</g>
</svg>
