<svg width="25" height="24" viewBox="0 0 25 24" fill="none" xmlns="http://www.w3.org/2000/svg">
<g id="image-03">
<path id="Icon" d="M4.77209 20.7279L11.3686 14.1314C11.7646 13.7354 11.9627 13.5373 12.191 13.4632C12.3918 13.3979 12.6082 13.3979 12.809 13.4632C13.0373 13.5373 13.2354 13.7354 13.6314 14.1314L20.1839 20.6839M14.5 15L17.3686 12.1314C17.7646 11.7354 17.9627 11.5373 18.191 11.4632C18.3918 11.3979 18.6082 11.3979 18.809 11.4632C19.0373 11.5373 19.2354 11.7354 19.6314 12.1314L22.5 15M10.5 9C10.5 10.1046 9.60457 11 8.5 11C7.39543 11 6.5 10.1046 6.5 9C6.5 7.89543 7.39543 7 8.5 7C9.60457 7 10.5 7.89543 10.5 9ZM7.3 21H17.7C19.3802 21 20.2202 21 20.862 20.673C21.4265 20.3854 21.8854 19.9265 22.173 19.362C22.5 18.7202 22.5 17.8802 22.5 16.2V7.8C22.5 6.11984 22.5 5.27976 22.173 4.63803C21.8854 4.07354 21.4265 3.6146 20.862 3.32698C20.2202 3 19.3802 3 17.7 3H7.3C5.61984 3 4.77976 3 4.13803 3.32698C3.57354 3.6146 3.1146 4.07354 2.82698 4.63803C2.5 5.27976 2.5 6.11984 2.5 7.8V16.2C2.5 17.8802 2.5 18.7202 2.82698 19.362C3.1146 19.9265 3.57354 20.3854 4.13803 20.673C4.77976 21 5.61984 21 7.3 21Z" stroke="#34A853" stroke-linecap="round" stroke-linejoin="round"/>
</g>
</svg>
