<svg width="24" height="24" viewBox="0 0 24 24" fill="none" xmlns="http://www.w3.org/2000/svg">
<g id="Frame 1000001482">
<g id="Group 1000001579">
<g id="Group">
<path id="Vector" d="M12.3003 7.12109C9.95389 7.12109 7.97412 9.02753 7.97412 11.4472C7.97412 13.867 9.88056 15.7734 12.3003 15.7734C14.72 15.7734 16.6264 13.867 16.6264 11.4472C16.6264 9.02753 14.6467 7.12109 12.3003 7.12109ZM10.6138 9.68745C10.2472 9.68745 9.95389 9.39416 9.95389 9.02753C9.95389 8.66091 10.2472 8.36761 10.6138 8.36761C10.9804 8.36761 11.2737 8.66091 11.2737 9.02753C11.2737 9.39416 10.9804 9.68745 10.6138 9.68745Z" fill="#333333"/>
<path id="Vector_2" d="M19.9262 2.79492H4.67466C4.01474 2.79492 3.50146 3.30819 3.50146 3.89479V18.9263C3.50146 19.5129 4.01474 20.0262 4.60133 20.0262H19.8528C20.4394 20.0262 20.9527 19.5129 20.9527 18.9263V4.87963C20.9527 4.22554 21.1487 3.42287 20.6299 3.0245C20.4439 2.88163 20.1974 2.79492 19.9262 2.79492ZM12.3004 17.2399C9.14746 17.2399 6.50777 14.6735 6.50777 11.4472C6.50777 8.22094 9.07413 5.65458 12.3004 5.65458C15.5267 5.65458 18.0931 8.22094 18.0931 11.4472C18.0931 14.6735 15.4534 17.2399 12.3004 17.2399ZM18.533 5.21463C18.1664 5.21463 17.8731 4.92134 17.8731 4.55471C17.8731 4.18809 18.1664 3.89479 18.533 3.89479C18.8996 3.89479 19.1929 4.18809 19.1929 4.55471C19.1929 4.92134 18.973 5.21463 18.533 5.21463Z" fill="#333333"/>
</g>
</g>
</g>
</svg>
