<svg width="20" height="20" viewBox="0 0 20 20" fill="none" xmlns="http://www.w3.org/2000/svg">
<path d="M10.25 5.93433C8.2947 5.93433 6.6449 7.52303 6.6449 9.53945C6.6449 11.5559 8.2336 13.1446 10.25 13.1446C12.2664 13.1446 13.8551 11.5559 13.8551 9.53945C13.8551 7.52303 12.2053 5.93433 10.25 5.93433ZM8.84464 8.07296C8.53912 8.07296 8.2947 7.82854 8.2947 7.52303C8.2947 7.21751 8.53912 6.97309 8.84464 6.97309C9.15015 6.97309 9.39457 7.21751 9.39457 7.52303C9.39457 7.82854 9.15015 8.07296 8.84464 8.07296Z" fill="white"/>
<path d="M16.605 2.3291H3.89539C3.34545 2.3291 2.91772 2.75683 2.91772 3.24566V15.7719C2.91772 16.2608 3.34545 16.6885 3.83428 16.6885H16.5439C17.0327 16.6885 17.4604 16.2608 17.4604 15.7719V4.2305C17.4604 3.57641 17.6362 2.7287 17.0526 2.43329C16.9218 2.36706 16.7688 2.3291 16.605 2.3291ZM10.2502 14.3666C7.62272 14.3666 5.42298 12.2279 5.42298 9.53935C5.42298 6.85078 7.56162 4.71215 10.2502 4.71215C12.9388 4.71215 15.0774 6.85078 15.0774 9.53935C15.0774 12.2279 12.8776 14.3666 10.2502 14.3666ZM15.444 4.34553C15.1385 4.34553 14.8941 4.10111 14.8941 3.79559C14.8941 3.49007 15.1385 3.24566 15.444 3.24566C15.7495 3.24566 15.9939 3.49007 15.9939 3.79559C15.9939 4.10111 15.8106 4.34553 15.444 4.34553Z" fill="white"/>
</svg>
