<svg width="60" height="60" viewBox="0 0 60 60" fill="none" xmlns="http://www.w3.org/2000/svg">
<g id="map-pin_svgrepo.com">
<path id="Vector" fill-rule="evenodd" clip-rule="evenodd" d="M28.464 59.4725L28.4577 59.4677L28.4422 59.4555L28.3875 59.4125C28.3405 59.3752 28.2728 59.3217 28.1855 59.252C28.0115 59.1127 27.7598 58.9092 27.4417 58.6467C26.806 58.122 25.9037 57.36 24.8235 56.3997C22.6665 54.4825 19.7832 51.7602 16.8918 48.5475C14.0076 45.3427 11.0673 41.5975 8.83668 37.632C6.61905 33.6895 5 29.3482 5 25C5 18.3696 7.63392 12.0107 12.3223 7.32232C17.0107 2.63392 23.3696 0 30 0C36.6305 0 42.9893 2.63392 47.6777 7.32232C52.366 12.0107 55 18.3696 55 25C55 29.3482 53.381 33.6895 51.1632 37.632C48.9328 41.5975 45.9925 45.3427 43.1082 48.5475C40.2167 51.7602 37.3335 54.4825 35.1765 56.3997C34.0962 57.36 33.194 58.122 32.5583 58.6467C32.2402 58.9092 31.9885 59.1127 31.8145 59.252C31.7272 59.3217 31.6595 59.3752 31.6125 59.4125L31.5578 59.4555L31.5423 59.4677L31.5375 59.4712C31.5375 59.4712 31.5347 59.4735 30 57.5L31.5347 59.4735C30.632 60.1755 29.3668 60.1747 28.464 59.4725ZM30 57.5L28.464 59.4725C28.464 59.4725 28.4653 59.4735 30 57.5ZM37.5 25C37.5 29.1422 34.1423 32.5 30 32.5C25.8577 32.5 22.5 29.1422 22.5 25C22.5 20.8579 25.8577 17.5 30 17.5C34.1423 17.5 37.5 20.8579 37.5 25Z" fill="#1F3155"/>
</g>
</svg>
