<svg width="30" height="30" viewBox="0 0 30 30" fill="none" xmlns="http://www.w3.org/2000/svg">
<g id="send-03">
<g id="Icon">
<path d="M3.21821 5.91206C2.99137 5.22862 2.87795 4.88689 2.9605 4.6764C3.0322 4.4936 3.18564 4.35512 3.37481 4.30248C3.59264 4.24187 3.92098 4.38962 4.57766 4.68512L25.4743 14.0886C26.1172 14.3779 26.4386 14.5225 26.538 14.7235C26.6243 14.8981 26.6243 15.1029 26.538 15.2775C26.4386 15.4784 26.1172 15.6231 25.4743 15.9124L4.58495 25.3126C3.92628 25.609 3.59694 25.7572 3.3789 25.6963C3.18955 25.6435 3.03609 25.5046 2.96464 25.3215C2.88237 25.1106 2.99702 24.7681 3.22631 24.0832L6.14496 15.3648C6.18422 15.2476 6.20385 15.1889 6.2117 15.1289C6.21866 15.0757 6.21873 15.0217 6.2119 14.9685C6.20421 14.9085 6.18473 14.8498 6.14577 14.7324L3.21821 5.91206Z" fill="#0074E4"/>
<path d="M13.1258 15.0005H6.25078M6.14496 15.3648L3.22631 24.0832C2.99702 24.7681 2.88237 25.1106 2.96464 25.3215C3.03609 25.5046 3.18955 25.6435 3.3789 25.6963C3.59694 25.7572 3.92628 25.609 4.58495 25.3126L25.4743 15.9124C26.1172 15.6231 26.4386 15.4784 26.538 15.2775C26.6243 15.1029 26.6243 14.8981 26.538 14.7235C26.4386 14.5225 26.1172 14.3779 25.4743 14.0886L4.57766 4.68512C3.92098 4.38962 3.59264 4.24187 3.37481 4.30248C3.18564 4.35512 3.0322 4.4936 2.9605 4.6764C2.87795 4.88689 2.99137 5.22862 3.21821 5.91206L6.14577 14.7324C6.18473 14.8498 6.20421 14.9085 6.2119 14.9685C6.21873 15.0217 6.21866 15.0757 6.2117 15.1289C6.20385 15.1889 6.18422 15.2476 6.14496 15.3648Z" stroke="white" stroke-linecap="round" stroke-linejoin="round"/>
</g>
</g>
</svg>
