<svg width="20" height="20" viewBox="0 0 20 20" fill="none" xmlns="http://www.w3.org/2000/svg">
<g clip-path="url(#clip0_64_39)">
<path d="M16.5961 17.082V17.0813H16.6V11.386C16.6 8.59986 16.0002 6.45361 12.743 6.45361C11.1771 6.45361 10.1263 7.31289 9.69736 8.12752H9.65206V6.71373H6.56372V17.0813H9.77953V11.9477C9.77953 10.596 10.0358 9.28896 11.7097 9.28896C13.359 9.28896 13.3836 10.8315 13.3836 12.0344V17.082H16.5961Z" fill="white"/>
<path d="M1.32721 6.71436H4.5469V17.0819H1.32721V6.71436Z" fill="white"/>
<path d="M2.93564 1.55298C1.9062 1.55298 1.07086 2.38831 1.07086 3.41776C1.07086 4.44721 1.9062 5.30001 2.93564 5.30001C3.96509 5.30001 4.80043 4.44721 4.80043 3.41776C4.79978 2.38831 3.96444 1.55298 2.93564 1.55298V1.55298Z" fill="white"/>
</g>
<defs>
<clipPath id="clip0_64_39">
<rect width="15.5291" height="15.5291" fill="white" transform="translate(1.07086 1.55298)"/>
</clipPath>
</defs>
</svg>
